# Blender 3.5.1
# www.blender.org
mtllib StarryNight.mtl
o Cube
v 10.140579 0.045907 0.091694
v 10.031010 0.045907 0.171301
v 10.072862 0.045907 0.300107
v 10.208296 0.045907 0.300107
v 10.250148 0.045907 0.171301
v 10.186758 0.045907 0.143342
v 10.094400 0.045907 0.143342
v 10.065861 0.045907 0.231179
v 10.140579 0.045907 0.285465
v 10.215298 0.045907 0.231179
v 10.140579 -0.059430 0.091694
v 10.031010 -0.059430 0.171301
v 10.072862 -0.059430 0.300107
v 10.208297 -0.059430 0.300107
v 10.250148 -0.059430 0.171301
v 10.186758 -0.059430 0.143342
v 10.094400 -0.059430 0.143342
v 10.065861 -0.059430 0.231179
v 10.140579 -0.059430 0.285465
v 10.215298 -0.059430 0.231179
v 10.197427 0.053590 0.292892
v 10.178808 0.057449 0.284413
v 10.157437 0.053590 0.283047
v 10.204794 0.053590 0.287539
v 10.202483 0.057449 0.267213
v 10.207788 0.053590 0.246465
v 10.239927 0.053590 0.179409
v 10.226110 0.057449 0.194496
v 10.218206 0.053590 0.214398
v 10.237113 0.053590 0.170748
v 10.217068 0.057449 0.166664
v 10.198975 0.053590 0.155208
v 10.145132 0.053590 0.103920
v 10.155210 0.057449 0.121723
v 10.171697 0.053590 0.135390
v 10.083732 0.053590 0.292892
v 10.102349 0.057449 0.284413
v 10.123720 0.053590 0.283047
v 10.076364 0.053590 0.287539
v 10.078674 0.057449 0.267213
v 10.073371 0.053590 0.246465
v 10.041230 0.053590 0.179409
v 10.055048 0.057449 0.194496
v 10.062951 0.053590 0.214398
v 10.044044 0.053590 0.170748
v 10.064091 0.057449 0.166664
v 10.082183 0.053590 0.155208
v 10.136025 0.053590 0.103920
v 10.125947 0.057449 0.121723
v 10.109461 0.053590 0.135390
v 10.197427 -0.067113 0.292892
v 10.178808 -0.070972 0.284413
v 10.157437 -0.067113 0.283047
v 10.204794 -0.067113 0.287539
v 10.202483 -0.070972 0.267213
v 10.207788 -0.067113 0.246465
v 10.239927 -0.067113 0.179409
v 10.226110 -0.070972 0.194496
v 10.218206 -0.067113 0.214398
v 10.237113 -0.067113 0.170748
v 10.217068 -0.070972 0.166664
v 10.198975 -0.067113 0.155208
v 10.145132 -0.067113 0.103920
v 10.155210 -0.070972 0.121723
v 10.171697 -0.067113 0.135390
v 10.083732 -0.067113 0.292892
v 10.102349 -0.070972 0.284413
v 10.123720 -0.067113 0.283047
v 10.076364 -0.067113 0.287539
v 10.078674 -0.070972 0.267213
v 10.073371 -0.067113 0.246465
v 10.041230 -0.067113 0.179409
v 10.055048 -0.070972 0.194496
v 10.062951 -0.067113 0.214398
v 10.044044 -0.067113 0.170748
v 10.064091 -0.070972 0.166664
v 10.082183 -0.067113 0.155208
v 10.136025 -0.067113 0.103920
v 10.125947 -0.070972 0.121723
v 10.109461 -0.067113 0.135390
v 10.189267 0.024487 0.139889
v 10.190194 -0.006762 0.138613
v 10.189267 -0.038010 0.139889
v 10.140579 -0.038010 0.076511
v 10.140579 -0.006762 0.069012
v 10.140579 0.024487 0.076511
v 10.217220 0.024487 0.312390
v 10.221628 -0.006762 0.318456
v 10.217220 -0.038010 0.312390
v 10.219357 -0.038010 0.232498
v 10.220858 -0.006762 0.232986
v 10.219357 0.024487 0.232498
v 10.091891 0.024487 0.139889
v 10.090964 -0.006762 0.138613
v 10.091891 -0.038010 0.139889
v 10.016570 -0.038010 0.166609
v 10.009439 -0.006762 0.164292
v 10.016570 0.024487 0.166609
v 10.063937 0.024487 0.312390
v 10.059529 -0.006762 0.318456
v 10.063937 -0.038010 0.312390
v 10.140579 -0.038010 0.289734
v 10.140579 -0.006762 0.291311
v 10.140579 0.024487 0.289734
v 10.264587 -0.038010 0.166609
v 10.271719 -0.006762 0.164292
v 10.264587 0.024487 0.166609
v 10.061801 0.024487 0.232498
v 10.060301 -0.006762 0.232986
v 10.061801 -0.038010 0.232498
v 10.140579 0.088432 0.206902
v 10.140579 0.070242 0.268414
v 10.162759 0.076448 0.258614
v 10.186291 0.070242 0.269818
v 10.182906 0.076448 0.243976
v 10.199080 0.070242 0.225910
v 10.196614 0.076448 0.201787
v 10.214541 0.070242 0.182870
v 10.188919 0.076448 0.178103
v 10.176735 0.070242 0.157137
v 10.153030 0.076448 0.152028
v 10.140579 0.070242 0.129132
v 10.128127 0.076448 0.152028
v 10.104423 0.070242 0.157137
v 10.092239 0.076448 0.178103
v 10.066616 0.070242 0.182870
v 10.084543 0.076448 0.201787
v 10.082077 0.070242 0.225910
v 10.098251 0.076448 0.243976
v 10.094868 0.070242 0.269818
v 10.118399 0.076448 0.258614
v 10.140579 -0.101955 0.206902
v 10.140579 -0.083765 0.268414
v 10.118399 -0.089971 0.258614
v 10.094868 -0.083765 0.269818
v 10.098251 -0.089971 0.243976
v 10.082077 -0.083765 0.225910
v 10.084543 -0.089971 0.201787
v 10.066616 -0.083765 0.182870
v 10.092239 -0.089971 0.178103
v 10.104423 -0.083765 0.157137
v 10.128127 -0.089971 0.152028
v 10.140579 -0.083765 0.129132
v 10.153030 -0.089971 0.152028
v 10.176735 -0.083765 0.157137
v 10.188919 -0.089971 0.178103
v 10.214541 -0.083765 0.182870
v 10.196614 -0.089971 0.201787
v 10.199080 -0.083765 0.225910
v 10.182906 -0.089971 0.243976
v 10.186291 -0.083765 0.269818
v 10.162759 -0.089971 0.258614
v 10.146815 0.026542 0.084911
v 10.156143 0.028331 0.103288
v 10.170597 0.026542 0.122947
v 10.147254 -0.006762 0.077488
v 10.156532 -0.006762 0.096980
v 10.170629 -0.006762 0.119239
v 10.146815 -0.040065 0.084911
v 10.156143 -0.041854 0.103288
v 10.170597 -0.040065 0.122947
v 10.214211 0.026542 0.257179
v 10.214073 0.028331 0.281578
v 10.217329 0.026542 0.301929
v 10.216417 -0.006762 0.260160
v 10.218097 -0.006762 0.286453
v 10.222047 -0.006762 0.307676
v 10.214211 -0.040065 0.257179
v 10.214073 -0.041854 0.281578
v 10.217329 -0.040065 0.301929
v 10.026485 0.026542 0.163273
v 10.046846 0.028331 0.160081
v 10.070009 0.026542 0.152410
v 10.019562 -0.006762 0.160562
v 10.040967 -0.006762 0.157761
v 10.066492 -0.006762 0.151233
v 10.026485 -0.040065 0.163273
v 10.046846 -0.041854 0.160081
v 10.070009 -0.040065 0.152410
v 10.115517 0.026542 0.292467
v 10.092268 0.028331 0.299875
v 10.073919 0.026542 0.309260
v 10.113362 -0.006762 0.295486
v 10.088875 -0.006762 0.305208
v 10.069911 -0.006762 0.315523
v 10.115517 -0.040065 0.292467
v 10.092268 -0.041854 0.299875
v 10.073919 -0.040065 0.309260
v 10.258527 0.026542 0.175135
v 10.243931 0.028331 0.189686
v 10.229701 0.026542 0.209507
v 10.265722 -0.006762 0.173259
v 10.250051 -0.006762 0.188107
v 10.233237 -0.006762 0.208391
v 10.258527 -0.040065 0.175135
v 10.243931 -0.041854 0.189686
v 10.229701 -0.040065 0.209507
v 10.110561 0.026542 0.122947
v 10.125015 0.028331 0.103288
v 10.134343 0.026542 0.084911
v 10.110529 -0.006762 0.119239
v 10.124625 -0.006762 0.096980
v 10.133904 -0.006762 0.077488
v 10.110561 -0.040065 0.122947
v 10.125015 -0.041854 0.103288
v 10.134343 -0.040065 0.084911
v 10.063829 0.026542 0.301929
v 10.067085 0.028331 0.281578
v 10.066947 0.026542 0.257179
v 10.059112 -0.006762 0.307677
v 10.063062 -0.006762 0.286453
v 10.064741 -0.006762 0.260160
v 10.063829 -0.040065 0.301929
v 10.067085 -0.041854 0.281578
v 10.066947 -0.040065 0.257179
v 10.211149 0.026542 0.152410
v 10.234312 0.028331 0.160081
v 10.254672 0.026542 0.163273
v 10.214665 -0.006762 0.151233
v 10.240191 -0.006762 0.157761
v 10.261597 -0.006762 0.160562
v 10.211149 -0.040065 0.152410
v 10.234312 -0.041854 0.160081
v 10.254672 -0.040065 0.163273
v 10.207238 0.026542 0.309260
v 10.188890 0.028331 0.299875
v 10.165642 0.026542 0.292467
v 10.211246 -0.006762 0.315523
v 10.192283 -0.006762 0.305208
v 10.167795 -0.006762 0.295486
v 10.207238 -0.040065 0.309260
v 10.188890 -0.041854 0.299875
v 10.165642 -0.040065 0.292467
v 10.051457 0.026542 0.209507
v 10.037228 0.028331 0.189686
v 10.022632 0.026542 0.175135
v 10.047920 -0.006762 0.208391
v 10.031107 -0.006762 0.188107
v 10.015436 -0.006762 0.173259
v 10.051457 -0.040065 0.209507
v 10.037228 -0.041854 0.189686
v 10.022632 -0.040065 0.175135
vn -0.0000 0.8070 0.5905
vn 0.0334 0.9205 0.3893
vn -0.0000 1.0000 -0.0000
vn -0.0334 0.9205 0.3893
vn 0.2676 0.8904 0.3683
vn 0.3599 0.9205 0.1521
vn 0.5616 0.8070 0.1825
vn 0.3806 0.9205 0.0885
vn 0.4329 0.8904 -0.1407
vn 0.2558 0.9205 -0.2953
vn 0.3471 0.8070 -0.4778
vn 0.2018 0.9205 -0.3346
vn -0.0000 0.8904 -0.4552
vn -0.2018 0.9205 -0.3346
vn -0.3471 0.8070 -0.4778
vn -0.2558 0.9205 -0.2953
vn -0.4329 0.8904 -0.1407
vn -0.3806 0.9205 0.0885
vn -0.5616 0.8070 0.1825
vn -0.3599 0.9205 0.1521
vn -0.2676 0.8904 0.3683
vn -0.0000 0.3786 0.9256
vn -0.0812 0.5183 0.8513
vn 0.0812 0.5183 0.8513
vn -0.1691 0.6065 0.7769
vn 0.1691 0.6065 0.7769
vn 0.4530 0.6373 0.6235
vn 0.6955 0.6908 0.1977
vn -0.0269 0.6908 0.7225
vn 0.7911 0.6065 0.0792
vn 0.8803 0.3786 0.2860
vn 0.7846 0.5183 0.3403
vn 0.8348 0.5183 0.1858
vn 0.6866 0.6065 0.4009
vn 0.7329 0.6373 -0.2381
vn 0.4029 0.6908 -0.6004
vn 0.6788 0.6908 0.2489
vn 0.3198 0.6065 -0.7279
vn 0.5440 0.3786 -0.7488
vn 0.5661 0.5183 -0.6410
vn 0.4347 0.5183 -0.7365
vn 0.5935 0.6065 -0.5291
vn -0.0000 0.6373 -0.7706
vn -0.4465 0.6908 -0.5687
vn 0.4465 0.6908 -0.5687
vn -0.5935 0.6065 -0.5291
vn -0.5440 0.3786 -0.7488
vn -0.4347 0.5183 -0.7365
vn -0.5661 0.5183 -0.6410
vn -0.3198 0.6065 -0.7279
vn -0.7329 0.6373 -0.2381
vn -0.6788 0.6908 0.2489
vn -0.4029 0.6908 -0.6004
vn -0.6866 0.6065 0.4009
vn -0.8803 0.3786 0.2860
vn -0.8348 0.5183 0.1858
vn -0.7846 0.5183 0.3403
vn -0.7911 0.6065 0.0792
vn -0.4530 0.6373 0.6235
vn 0.0269 0.6908 0.7225
vn -0.6955 0.6908 0.1977
vn -0.0000 -0.8070 0.5905
vn -0.0334 -0.9205 0.3893
vn -0.0000 -1.0000 -0.0000
vn 0.0334 -0.9205 0.3893
vn -0.2676 -0.8904 0.3683
vn -0.3599 -0.9205 0.1521
vn -0.5616 -0.8070 0.1825
vn -0.3806 -0.9205 0.0885
vn -0.4329 -0.8904 -0.1407
vn -0.2558 -0.9205 -0.2953
vn -0.3471 -0.8070 -0.4778
vn -0.2018 -0.9205 -0.3346
vn -0.0000 -0.8904 -0.4552
vn 0.2018 -0.9205 -0.3346
vn 0.3471 -0.8070 -0.4778
vn 0.2558 -0.9205 -0.2953
vn 0.4329 -0.8904 -0.1407
vn 0.3806 -0.9205 0.0885
vn 0.5616 -0.8070 0.1825
vn 0.3599 -0.9205 0.1521
vn 0.2676 -0.8904 0.3683
vn -0.0000 -0.3786 0.9256
vn 0.0812 -0.5183 0.8513
vn -0.0812 -0.5183 0.8513
vn 0.1691 -0.6065 0.7769
vn -0.1691 -0.6065 0.7769
vn -0.4530 -0.6373 0.6235
vn -0.6955 -0.6908 0.1977
vn 0.0269 -0.6908 0.7225
vn -0.7911 -0.6065 0.0792
vn -0.8803 -0.3786 0.2860
vn -0.7846 -0.5183 0.3403
vn -0.8348 -0.5183 0.1858
vn -0.6866 -0.6065 0.4009
vn -0.7329 -0.6373 -0.2381
vn -0.4029 -0.6908 -0.6004
vn -0.6788 -0.6908 0.2489
vn -0.3198 -0.6065 -0.7279
vn -0.5440 -0.3786 -0.7488
vn -0.5661 -0.5183 -0.6410
vn -0.4347 -0.5183 -0.7365
vn -0.5935 -0.6065 -0.5291
vn -0.0000 -0.6373 -0.7706
vn 0.4465 -0.6908 -0.5687
vn -0.4465 -0.6908 -0.5687
vn 0.5935 -0.6065 -0.5291
vn 0.5440 -0.3786 -0.7488
vn 0.4347 -0.5183 -0.7365
vn 0.5661 -0.5183 -0.6410
vn 0.3198 -0.6065 -0.7279
vn 0.7329 -0.6373 -0.2381
vn 0.6788 -0.6908 0.2489
vn 0.4029 -0.6908 -0.6004
vn 0.6866 -0.6065 0.4009
vn 0.8803 -0.3786 0.2860
vn 0.8348 -0.5183 0.1858
vn 0.7846 -0.5183 0.3403
vn 0.7911 -0.6065 0.0792
vn 0.4530 -0.6373 0.6235
vn -0.0269 -0.6908 0.7225
vn 0.6955 -0.6908 0.1977
vn 0.8009 0.2687 -0.5351
vn 0.8189 0.2320 -0.5249
vn 0.8670 -0.0000 -0.4982
vn 0.8388 -0.0000 -0.5445
vn 0.7256 0.1935 -0.6604
vn 0.7674 -0.0000 -0.6412
vn 0.8189 -0.2320 -0.5249
vn 0.8009 -0.2687 -0.5351
vn 0.7256 -0.1935 -0.6604
vn -0.0000 0.3663 -0.9305
vn 0.5801 0.1608 -0.7985
vn 0.5878 -0.0000 -0.8090
vn 0.5801 -0.1608 -0.7985
vn -0.0000 -0.3663 -0.9305
vn -0.0000 -0.0000 -1.0000
vn 0.9752 0.1935 0.1078
vn 0.9711 0.2320 -0.0567
vn 0.9943 -0.0000 -0.1066
vn 0.9977 -0.0000 0.0676
vn 0.9625 0.2687 -0.0379
vn 0.9986 -0.0000 -0.0526
vn 0.9711 -0.2320 -0.0567
vn 0.9752 -0.1935 0.1078
vn 0.9625 -0.2687 -0.0379
vn 0.9387 0.1608 0.3050
vn 0.5469 0.3663 0.7528
vn 0.5878 -0.0000 0.8090
vn 0.5469 -0.3663 0.7528
vn 0.9387 -0.1608 0.3050
vn 0.9511 -0.0000 0.3090
vn -0.2614 0.2687 -0.9271
vn -0.2462 0.2320 -0.9411
vn -0.2059 -0.0000 -0.9786
vn -0.2586 -0.0000 -0.9660
vn -0.4038 0.1935 -0.8941
vn -0.3726 -0.0000 -0.9280
vn -0.2462 -0.2320 -0.9411
vn -0.2614 -0.2687 -0.9271
vn -0.4038 -0.1935 -0.8941
vn -0.8849 0.3663 -0.2875
vn -0.5801 0.1608 -0.7985
vn -0.5878 -0.0000 -0.8090
vn -0.5801 -0.1608 -0.7985
vn -0.8849 -0.3663 -0.2875
vn -0.9511 -0.0000 -0.3090
vn 0.1988 0.1935 0.9607
vn 0.3540 0.2320 0.9060
vn 0.4086 -0.0000 0.9127
vn 0.2440 -0.0000 0.9698
vn 0.3334 0.2687 0.9037
vn 0.3586 -0.0000 0.9335
vn 0.3540 -0.2320 0.9060
vn 0.1988 -0.1935 0.9607
vn 0.3334 -0.2687 0.9037
vn -0.0000 0.1608 0.9870
vn -0.5469 0.3663 0.7528
vn -0.5878 -0.0000 0.8090
vn -0.5469 -0.3663 0.7528
vn -0.0000 -0.1608 0.9870
vn -0.0000 -0.0000 1.0000
vn 0.7564 0.2687 0.5964
vn 0.7523 0.2320 0.6166
vn 0.7418 -0.0000 0.6706
vn 0.7770 -0.0000 0.6295
vn 0.8523 0.1935 0.4860
vn 0.8469 -0.0000 0.5317
vn 0.7523 -0.2320 0.6166
vn 0.7564 -0.2687 0.5964
vn 0.8523 -0.1935 0.4860
vn 0.8849 0.3663 -0.2875
vn 0.8849 -0.3663 -0.2875
vn 0.9511 -0.0000 -0.3090
vn -0.7256 0.1935 -0.6604
vn -0.8189 0.2320 -0.5249
vn -0.8670 -0.0000 -0.4982
vn -0.7674 -0.0000 -0.6412
vn -0.8009 0.2687 -0.5351
vn -0.8388 -0.0000 -0.5445
vn -0.8189 -0.2320 -0.5249
vn -0.7256 -0.1935 -0.6604
vn -0.8009 -0.2687 -0.5351
vn -0.9625 0.2687 -0.0379
vn -0.9711 0.2320 -0.0567
vn -0.9943 -0.0000 -0.1066
vn -0.9986 -0.0000 -0.0526
vn -0.9752 0.1935 0.1078
vn -0.9977 -0.0000 0.0676
vn -0.9711 -0.2320 -0.0567
vn -0.9625 -0.2687 -0.0379
vn -0.9752 -0.1935 0.1078
vn -0.9387 0.1608 0.3050
vn -0.9511 -0.0000 0.3090
vn -0.9387 -0.1608 0.3050
vn 0.4038 0.1935 -0.8941
vn 0.2462 0.2320 -0.9411
vn 0.2059 -0.0000 -0.9786
vn 0.3726 -0.0000 -0.9280
vn 0.2614 0.2687 -0.9271
vn 0.2586 -0.0000 -0.9660
vn 0.2462 -0.2320 -0.9411
vn 0.4038 -0.1935 -0.8941
vn 0.2614 -0.2687 -0.9271
vn -0.3334 0.2687 0.9037
vn -0.3540 0.2320 0.9060
vn -0.4086 -0.0000 0.9127
vn -0.3586 -0.0000 0.9335
vn -0.1988 0.1935 0.9607
vn -0.2440 -0.0000 0.9698
vn -0.3540 -0.2320 0.9060
vn -0.3334 -0.2687 0.9037
vn -0.1988 -0.1935 0.9607
vn -0.8523 0.1935 0.4860
vn -0.7523 0.2320 0.6166
vn -0.7418 -0.0000 0.6706
vn -0.8469 -0.0000 0.5317
vn -0.7564 0.2687 0.5964
vn -0.7770 -0.0000 0.6295
vn -0.7523 -0.2320 0.6166
vn -0.8523 -0.1935 0.4860
vn -0.7564 -0.2687 0.5964
s 1
usemtl Material
f 112//1 113//2 111//3 131//4
f 114//5 115//6 111//3 113//2
f 116//7 117//8 111//3 115//6
f 118//9 119//10 111//3 117//8
f 120//11 121//12 111//3 119//10
f 122//13 123//14 111//3 121//12
f 124//15 125//16 111//3 123//14
f 126//17 127//18 111//3 125//16
f 128//19 129//20 111//3 127//18
f 130//21 131//4 111//3 129//20
f 9//22 23//23 112//1 38//24
f 23//23 22//25 113//2 112//1
f 38//24 112//1 131//4 37//26
f 4//27 24//28 114//5 21//29
f 24//28 25//30 115//6 114//5
f 21//29 114//5 113//2 22//25
f 10//31 29//32 116//7 26//33
f 29//32 28//34 117//8 116//7
f 26//33 116//7 115//6 25//30
f 5//35 30//36 118//9 27//37
f 30//36 31//38 119//10 118//9
f 27//37 118//9 117//8 28//34
f 6//39 35//40 120//11 32//41
f 35//40 34//42 121//12 120//11
f 32//41 120//11 119//10 31//38
f 1//43 48//44 122//13 33//45
f 48//44 49//46 123//14 122//13
f 33//45 122//13 121//12 34//42
f 7//47 47//48 124//15 50//49
f 47//48 46//50 125//16 124//15
f 50//49 124//15 123//14 49//46
f 2//51 42//52 126//17 45//53
f 42//52 43//54 127//18 126//17
f 45//53 126//17 125//16 46//50
f 8//55 41//56 128//19 44//57
f 41//56 40//58 129//20 128//19
f 44//57 128//19 127//18 43//54
f 3//59 36//60 130//21 39//61
f 36//60 37//26 131//4 130//21
f 39//61 130//21 129//20 40//58
f 133//62 134//63 132//64 152//65
f 135//66 136//67 132//64 134//63
f 137//68 138//69 132//64 136//67
f 139//70 140//71 132//64 138//69
f 141//72 142//73 132//64 140//71
f 143//74 144//75 132//64 142//73
f 145//76 146//77 132//64 144//75
f 147//78 148//79 132//64 146//77
f 149//80 150//81 132//64 148//79
f 151//82 152//65 132//64 150//81
f 19//83 68//84 133//62 53//85
f 68//84 67//86 134//63 133//62
f 53//85 133//62 152//65 52//87
f 13//88 69//89 135//66 66//90
f 69//89 70//91 136//67 135//66
f 66//90 135//66 134//63 67//86
f 18//92 74//93 137//68 71//94
f 74//93 73//95 138//69 137//68
f 71//94 137//68 136//67 70//91
f 12//96 75//97 139//70 72//98
f 75//97 76//99 140//71 139//70
f 72//98 139//70 138//69 73//95
f 17//100 80//101 141//72 77//102
f 80//101 79//103 142//73 141//72
f 77//102 141//72 140//71 76//99
f 11//104 63//105 143//74 78//106
f 63//105 64//107 144//75 143//74
f 78//106 143//74 142//73 79//103
f 16//108 62//109 145//76 65//110
f 62//109 61//111 146//77 145//76
f 65//110 145//76 144//75 64//107
f 15//112 57//113 147//78 60//114
f 57//113 58//115 148//79 147//78
f 60//114 147//78 146//77 61//111
f 20//116 56//117 149//80 59//118
f 56//117 55//119 150//81 149//80
f 59//118 149//80 148//79 58//115
f 14//120 51//121 151//82 54//122
f 51//121 52//87 152//65 151//82
f 54//122 151//82 150//81 55//119
f 153//123 154//124 157//125 156//126
f 154//124 155//127 158//128 157//125
f 156//126 157//125 160//129 159//130
f 157//125 158//128 161//131 160//129
f 1//43 33//45 153//123 86//132
f 33//45 34//42 154//124 153//123
f 34//42 35//40 155//127 154//124
f 35//40 6//39 81//133 155//127
f 155//127 81//133 82//134 158//128
f 158//128 82//134 83//135 161//131
f 161//131 83//135 16//108 65//110
f 160//129 161//131 65//110 64//107
f 159//130 160//129 64//107 63//105
f 84//136 159//130 63//105 11//104
f 85//137 156//126 159//130 84//136
f 86//132 153//123 156//126 85//137
f 162//138 163//139 166//140 165//141
f 163//139 164//142 167//143 166//140
f 165//141 166//140 169//144 168//145
f 166//140 167//143 170//146 169//144
f 10//31 26//33 162//138 92//147
f 26//33 25//30 163//139 162//138
f 25//30 24//28 164//142 163//139
f 24//28 4//27 87//148 164//142
f 164//142 87//148 88//149 167//143
f 167//143 88//149 89//150 170//146
f 170//146 89//150 14//120 54//122
f 169//144 170//146 54//122 55//119
f 168//145 169//144 55//119 56//117
f 90//151 168//145 56//117 20//116
f 91//152 165//141 168//145 90//151
f 92//147 162//138 165//141 91//152
f 171//153 172//154 175//155 174//156
f 172//154 173//157 176//158 175//155
f 174//156 175//155 178//159 177//160
f 175//155 176//158 179//161 178//159
f 2//51 45//53 171//153 98//162
f 45//53 46//50 172//154 171//153
f 46//50 47//48 173//157 172//154
f 47//48 7//47 93//163 173//157
f 173//157 93//163 94//164 176//158
f 176//158 94//164 95//165 179//161
f 179//161 95//165 17//100 77//102
f 178//159 179//161 77//102 76//99
f 177//160 178//159 76//99 75//97
f 96//166 177//160 75//97 12//96
f 97//167 174//156 177//160 96//166
f 98//162 171//153 174//156 97//167
f 180//168 181//169 184//170 183//171
f 181//169 182//172 185//173 184//170
f 183//171 184//170 187//174 186//175
f 184//170 185//173 188//176 187//174
f 9//22 38//24 180//168 104//177
f 38//24 37//26 181//169 180//168
f 37//26 36//60 182//172 181//169
f 36//60 3//59 99//178 182//172
f 182//172 99//178 100//179 185//173
f 185//173 100//179 101//180 188//176
f 188//176 101//180 13//88 66//90
f 187//174 188//176 66//90 67//86
f 186//175 187//174 67//86 68//84
f 102//181 186//175 68//84 19//83
f 103//182 183//171 186//175 102//181
f 104//177 180//168 183//171 103//182
f 189//183 190//184 193//185 192//186
f 190//184 191//187 194//188 193//185
f 192//186 193//185 196//189 195//190
f 193//185 194//188 197//191 196//189
f 5//35 27//37 189//183 107//192
f 27//37 28//34 190//184 189//183
f 28//34 29//32 191//187 190//184
f 29//32 10//31 92//147 191//187
f 191//187 92//147 91//152 194//188
f 194//188 91//152 90//151 197//191
f 197//191 90//151 20//116 59//118
f 196//189 197//191 59//118 58//115
f 195//190 196//189 58//115 57//113
f 105//193 195//190 57//113 15//112
f 106//194 192//186 195//190 105//193
f 107//192 189//183 192//186 106//194
f 198//195 199//196 202//197 201//198
f 199//196 200//199 203//200 202//197
f 201//198 202//197 205//201 204//202
f 202//197 203//200 206//203 205//201
f 7//47 50//49 198//195 93//163
f 50//49 49//46 199//196 198//195
f 49//46 48//44 200//199 199//196
f 48//44 1//43 86//132 200//199
f 200//199 86//132 85//137 203//200
f 203//200 85//137 84//136 206//203
f 206//203 84//136 11//104 78//106
f 205//201 206//203 78//106 79//103
f 204//202 205//201 79//103 80//101
f 95//165 204//202 80//101 17//100
f 94//164 201//198 204//202 95//165
f 93//163 198//195 201//198 94//164
f 207//204 208//205 211//206 210//207
f 208//205 209//208 212//209 211//206
f 210//207 211//206 214//210 213//211
f 211//206 212//209 215//212 214//210
f 3//59 39//61 207//204 99//178
f 39//61 40//58 208//205 207//204
f 40//58 41//56 209//208 208//205
f 41//56 8//55 108//213 209//208
f 209//208 108//213 109//214 212//209
f 212//209 109//214 110//215 215//212
f 215//212 110//215 18//92 71//94
f 214//210 215//212 71//94 70//91
f 213//211 214//210 70//91 69//89
f 101//180 213//211 69//89 13//88
f 100//179 210//207 213//211 101//180
f 99//178 207//204 210//207 100//179
f 216//216 217//217 220//218 219//219
f 217//217 218//220 221//221 220//218
f 219//219 220//218 223//222 222//223
f 220//218 221//221 224//224 223//222
f 6//39 32//41 216//216 81//133
f 32//41 31//38 217//217 216//216
f 31//38 30//36 218//220 217//217
f 30//36 5//35 107//192 218//220
f 218//220 107//192 106//194 221//221
f 221//221 106//194 105//193 224//224
f 224//224 105//193 15//112 60//114
f 223//222 224//224 60//114 61//111
f 222//223 223//222 61//111 62//109
f 83//135 222//223 62//109 16//108
f 82//134 219//219 222//223 83//135
f 81//133 216//216 219//219 82//134
f 225//225 226//226 229//227 228//228
f 226//226 227//229 230//230 229//227
f 228//228 229//227 232//231 231//232
f 229//227 230//230 233//233 232//231
f 4//27 21//29 225//225 87//148
f 21//29 22//25 226//226 225//225
f 22//25 23//23 227//229 226//226
f 23//23 9//22 104//177 227//229
f 227//229 104//177 103//182 230//230
f 230//230 103//182 102//181 233//233
f 233//233 102//181 19//83 53//85
f 232//231 233//233 53//85 52//87
f 231//232 232//231 52//87 51//121
f 89//150 231//232 51//121 14//120
f 88//149 228//228 231//232 89//150
f 87//148 225//225 228//228 88//149
f 234//234 235//235 238//236 237//237
f 235//235 236//238 239//239 238//236
f 237//237 238//236 241//240 240//241
f 238//236 239//239 242//242 241//240
f 8//55 44//57 234//234 108//213
f 44//57 43//54 235//235 234//234
f 43//54 42//52 236//238 235//235
f 42//52 2//51 98//162 236//238
f 236//238 98//162 97//167 239//239
f 239//239 97//167 96//166 242//242
f 242//242 96//166 12//96 72//98
f 241//240 242//242 72//98 73//95
f 240//241 241//240 73//95 74//93
f 110//215 240//241 74//93 18//92
f 109//214 237//237 240//241 110//215
f 108//213 234//234 237//237 109//214
o Icosphere
v 0.947018 -0.045580 7.349364
v 0.980322 -0.020138 7.373560
v 0.934297 -0.020138 7.388515
v 0.905852 -0.020138 7.349364
v 0.934297 -0.020138 7.310213
v 0.980322 -0.020138 7.325167
v 0.959739 0.021028 7.388515
v 0.913714 0.021028 7.373560
v 0.913714 0.021028 7.325167
v 0.959739 0.021028 7.310213
v 0.988184 0.021028 7.349364
v 0.947018 0.046470 7.349364
vn 0.1876 -0.7947 0.5774
vn 0.6071 -0.7947 -0.0000
vn -0.4911 -0.7947 0.3568
vn -0.4911 -0.7947 -0.3568
vn 0.1876 -0.7947 -0.5774
vn 0.9822 -0.1876 -0.0000
vn 0.3035 -0.1876 0.9342
vn -0.7946 -0.1876 0.5774
vn -0.7946 -0.1876 -0.5774
vn 0.3035 -0.1876 -0.9342
vn 0.7946 0.1876 0.5774
vn -0.3035 0.1876 0.9342
vn -0.9822 0.1876 -0.0000
vn -0.3035 0.1876 -0.9342
vn 0.7946 0.1876 -0.5774
vn 0.4911 0.7947 0.3568
vn -0.1876 0.7947 0.5774
vn -0.6071 0.7947 -0.0000
vn -0.1876 0.7947 -0.5774
vn 0.4911 0.7947 -0.3568
s 0
usemtl Halo
f 243//243 244//243 245//243
f 244//244 243//244 248//244
f 243//245 245//245 246//245
f 243//246 246//246 247//246
f 243//247 247//247 248//247
f 244//248 248//248 253//248
f 245//249 244//249 249//249
f 246//250 245//250 250//250
f 247//251 246//251 251//251
f 248//252 247//252 252//252
f 244//253 253//253 249//253
f 245//254 249//254 250//254
f 246//255 250//255 251//255
f 247//256 251//256 252//256
f 248//257 252//257 253//257
f 249//258 253//258 254//258
f 250//259 249//259 254//259
f 251//260 250//260 254//260
f 252//261 251//261 254//261
f 253//262 252//262 254//262
